<?xml version="1.0" encoding="UTF-8"?>
<svg width="220px" height="165px" viewBox="0 0 220 165" version="1.1" xmlns="http://www.w3.org/2000/svg" xmlns:xlink="http://www.w3.org/1999/xlink">
    <!-- Generator: Sketch 56.2 (81672) - https://sketch.com -->
    <title>空状态/商店没车 picture_zerocar</title>
    <desc>Created with Sketch.</desc>
    <defs>
        <linearGradient x1="50%" y1="-33.9427663%" x2="50%" y2="83.3320846%" id="linearGradient-1">
            <stop stop-color="#CBEBFF" offset="0%"></stop>
            <stop stop-color="#DCEBF4" stop-opacity="0" offset="100%"></stop>
        </linearGradient>
        <linearGradient x1="50%" y1="100%" x2="50%" y2="0%" id="linearGradient-2">
            <stop stop-color="#CBEBFF" offset="0%"></stop>
            <stop stop-color="#DCEBF4" stop-opacity="0" offset="100%"></stop>
        </linearGradient>
        <linearGradient x1="50%" y1="-33.9427663%" x2="50%" y2="83.3320846%" id="linearGradient-3">
            <stop stop-color="#CBEBFF" offset="0%"></stop>
            <stop stop-color="#DCEBF4" stop-opacity="0" offset="100%"></stop>
        </linearGradient>
        <radialGradient cx="50%" cy="0%" fx="50%" fy="0%" r="58.6517579%" gradientTransform="translate(0.500000,0.000000),scale(0.139430,1.000000),rotate(90.000000),scale(1.000000,6.239471),translate(-0.500000,-0.000000)" id="radialGradient-4">
            <stop stop-color="#3CA2DD" stop-opacity="0.132484703" offset="0%"></stop>
            <stop stop-color="#3CA2DD" stop-opacity="0" offset="100%"></stop>
        </radialGradient>
    </defs>
    <g id="空状态/商店没车-picture_zerocar" stroke="none" stroke-width="1" fill="none" fill-rule="evenodd">
        <g id="编组-3" transform="translate(2.000000, 27.000000)">
            <g id="编组-4" transform="translate(9.500000, 3.000000)">
                <path d="M149.981577,43.1725836 C151.146775,39.8681148 154.296836,37.5 158,37.5 C161.100814,37.5 163.813826,39.1603836 165.298454,41.6405709 C170.533575,42.3682377 174.5,45.8341424 174.5,50 C174.5,54.6944204 169.463203,58.5 163.25,58.5 C162.198992,58.5 161.181646,58.3911065 160.216647,58.1874375 C158.091658,59.3228354 155.412123,60 152.5,60 C145.596441,60 140,56.1944204 140,51.5 C140,47.3921987 144.285158,43.9649769 149.981577,43.1725836 Z" id="形状结合" fill="url(#linearGradient-1)"></path>
                <path d="M9.98157731,43.1725836 C11.1467749,39.8681148 14.296836,37.5 18,37.5 C21.1008145,37.5 23.8138256,39.1603836 25.2984535,41.6405709 C30.5335745,42.3682377 34.5,45.8341424 34.5,50 C34.5,54.6944204 29.4632034,58.5 23.25,58.5 C22.1989919,58.5 21.1816456,58.3911065 20.2166467,58.1874375 C18.0916582,59.3228354 15.4121234,60 12.5,60 C5.59644063,60 0,56.1944204 0,51.5 C0,47.3921987 4.28515765,43.9649769 9.98157731,43.1725836 Z" id="形状结合" fill="url(#linearGradient-1)"></path>
                <path d="M183.335432,19.3100186 C190.653205,19.3100186 196.585432,10.0673408 196.585432,6.61556111 C196.585432,3.16378142 190.653205,0.365561109 183.335432,0.365561109 C177.879317,0.365561109 161.6165,-0.912191928 159.585432,1.3100186 C159.254123,1.67250599 159.756487,7.3864546 163.43226,9.3100186 C167.108033,11.2335826 170.835432,4.28456353 170.835432,4.74289195 C170.835432,8.19467164 176.017659,19.3100186 183.335432,19.3100186 Z" id="椭圆形" fill-opacity="0.54" fill="url(#linearGradient-2)" transform="translate(178.042716, 9.655009) scale(1, -1) translate(-178.042716, -9.655009) "></path>
                <path d="M34.7692308,29.3348624 C32.5191548,29.3348624 25.6955113,29.5 23.6634615,29.5 C19.9833333,29.5 17,27.1710592 17,24.2981651 C17,21.4252711 19.9833333,19.0963303 23.6634615,19.0963303 C23.9501478,19.0963303 24.2326055,19.1104637 24.5097537,19.1378866 C25.2310792,14.8191226 29.5496059,11.5 34.7692308,11.5 C40.3229038,11.5 44.8564501,15.2575548 45.122292,19.9787449 C46.1835521,19.4215115 47.4613998,19.0963303 48.8365385,19.0963303 C52.5166667,19.0963303 55.5,21.4252711 55.5,24.2981651 C55.5,27.1710592 52.5166667,29.5 48.8365385,29.5 C46.0252273,29.5 37.9190767,29.3348624 34.7692308,29.3348624 Z" id="路径" fill="url(#linearGradient-3)"></path>
            </g>
            <g id="编组-6">
                <g id="编组-2">
                    <path d="M165,83.0531676 C148.480728,81.7575754 128.510396,81 107,81 C85.4896043,81 65.5192716,81.7575754 49,83.0531676 L49,48 L165,48 L165,83.0531676 Z" id="形状结合" fill="#F6FBFF"></path>
                    <path d="M164.969349,50.0203324 L50.0306513,50.0203324 L50.0306513,82.5537465 C47.2657484,82.7174248 44.5863114,82.8925655 42,83.0784531 L42,15 C42,12.2385763 44.2385763,10 47,10 L168,10 C170.761424,10 173,12.2385763 173,15 L173,83.0784531 C170.413689,82.8925655 167.734252,82.7174248 164.969349,82.5537465 L164.969349,50.0203324 Z" id="路径" fill="#D0EDFE"></path>
                    <path d="M107.5,110.977448 C199.404538,110.977448 215,97.6870611 215,91.75 C215,85.8129389 166.870611,81 107.5,81 C48.1293894,81 0,85.8129389 0,91.75 C0,97.6870611 15.5954619,110.977448 107.5,110.977448 Z" id="椭圆形" fill="url(#radialGradient-4)"></path>
                    <polygon id="矩形" fill="#F6FBFF" points="55.5 22 160 22 165 28 50.5 28"></polygon>
                    <polygon id="矩形" fill="#F6FBFF" points="55.5 31 160 31 165 37 50.5 37"></polygon>
                    <polygon id="矩形" fill="#F6FBFF" points="55.5 40 160 40 165 46 50.5 46"></polygon>
                    <rect id="矩形" fill="#D0EDFE" x="42" y="0" width="131" height="18" rx="6"></rect>
                    <text id="TRADE-X" font-family="Arial-Black, Arial Black" font-size="10" font-weight="700" fill="#FFFFFF">
                        <tspan x="83.5" y="14">TRADE X</tspan>
                    </text>
                </g>
            </g>
            <path d="M120.830994,76 C119.300668,76 116.134514,77.5374498 115.444017,79.7151602 C114.753521,81.8928706 114.120766,83.6745495 112.920508,84.4481497 C111.720251,85.2217499 120.169326,85.5444505 122.741426,82.9143812 C125.313526,80.2843119 124.998049,78.1233768 124.348165,77.2205807 C123.698281,76.3177846 122.36132,76 120.830994,76 Z" id="路径-4" fill="#B6E4FF" transform="translate(118.804488, 80.500000) rotate(12.000000) translate(-118.804488, -80.500000) "></path>
            <path d="M90.3510041,57.2830353 C89.3307867,57.2830353 87.2200175,58.3080018 86.7596862,59.7598088 C86.2993549,61.2116157 85.8775183,62.3994017 85.0773468,62.9151351 C84.2771753,63.4308685 89.9098921,63.6460023 91.6246252,61.8926228 C93.3393584,60.1392433 93.1290407,58.6986198 92.6957846,58.0967557 C92.2625285,57.4948917 91.3712215,57.2830353 90.3510041,57.2830353 Z" id="路径-4" fill="#B6E4FF"></path>
            <path d="M64.0132531,74 C63.24809,74 61.6650131,74.8541388 61.3197646,76.0639779 C60.9745162,77.273817 60.6581387,78.2636386 60.0580101,78.6934165 C59.4578815,79.1231944 63.6824191,79.3024725 64.9684689,77.8413229 C66.2545188,76.3801733 66.0967805,75.1796538 65.7718384,74.6781004 C65.4468963,74.176547 64.7784161,74 64.0132531,74 Z" id="路径-4" fill="#B6E4FF" opacity="0.315987723"></path>
            <path d="M158.01988,50 C156.872135,50 154.49752,51.0249665 153.979647,52.4767735 C153.461774,53.9285804 152.987208,55.1163664 152.087015,55.6320998 C151.186822,56.1478332 157.523629,56.362967 159.452703,54.6095875 C161.381778,52.856208 161.145171,51.4155845 160.657758,50.8137204 C160.170345,50.2118564 159.167624,50 158.01988,50 Z" id="路径-4" fill="#B6E4FF" opacity="0.489955357"></path>
            <path d="M145.668053,61.7802388 C140.496424,68.8520445 136.379817,71.6872011 133.318232,70.2857087 C128.725853,68.1834702 133.567414,63.0061253 135.722791,65.4733285 C137.878168,67.9405317 134.822253,71.0238906 131.745248,72.8941044 C129.693911,74.1409136 127.675855,74.9957199 125.69108,75.4585233" id="路径-5" stroke="#B6E4FF" stroke-linecap="round" transform="translate(135.679566, 68.619381) rotate(-11.000000) translate(-135.679566, -68.619381) "></path>
            <path d="M107.544722,44.2830353 C105.007561,48.4522082 102.359038,50.226043 99.5991524,49.6045397 C95.459324,48.6722847 97.6761793,44.040358 100.441336,45.2718807 C103.206493,46.5034034 100.939258,50.5729491 98.3118591,52.4983276 C96.5602598,53.7819132 94.7896401,54.8388218 93,55.6690534" id="路径-5" stroke="#B6E4FF" stroke-linecap="round" transform="translate(100.272361, 49.976044) rotate(-11.000000) translate(-100.272361, -49.976044) "></path>
        </g>
    </g>
</svg>